<svg width="147" height="214" viewBox="0 0 147 214" fill="none" xmlns="http://www.w3.org/2000/svg">
<path d="M111.921 3.93455L25.0319 2.0708C21.6153 7.04079 18.7338 17.4363 16.8888 19.2587C15.0438 21.081 20.3762 106.579 18.4117 149.1L27.9074 150.756L118.954 144.337C152.054 123.421 155.158 83.8685 118.954 68.9585C118.954 68.9585 142.332 57.569 138.608 33.7545C134.884 9.93995 111.921 3.93455 111.921 3.93455Z" fill="white"/>
<path fill-rule="evenodd" clip-rule="evenodd" d="M93.3016 0.384751C103.241 0.824594 108.699 1.51211 113.162 2.88672C121.834 5.55768 129.14 11.0872 134.346 18.9199C138.351 24.9444 140.263 31.383 140.263 38.8458C140.263 49.0231 136.848 57.5077 129.834 64.7581C127.853 66.8057 126.271 68.4996 126.317 68.5228C126.364 68.5456 127.798 69.4232 129.505 70.4731C137.731 75.5318 143.457 83.2787 145.945 92.7147C146.828 96.0636 146.991 97.6039 147 102.681C147.014 110.967 145.796 116.111 142.05 123.596C138.132 131.425 134.394 135.321 123.506 142.926C119.409 145.786 113.367 150.025 110.079 152.345C101.724 158.239 97.0746 160.306 88.9762 161.722C83.1539 162.741 67.8172 163.129 32.9969 163.139L0 163.149V89.7033V16.2576L11.4817 8.13793L22.9634 0.0186271L53.5812 0.000407544C70.421 -0.00953243 88.2952 0.163586 93.3016 0.384751ZM26.894 73.6896V143.269H35.376H43.858V83.3189V23.3685L53.064 23.4554L62.27 23.5428L62.4769 44.2838L62.6838 65.0248L76.1308 49.8262C83.5266 41.4671 91.8121 32.1222 94.5429 29.0603L99.5079 23.4931L111.093 23.5316C117.465 23.5528 123.023 23.571 123.444 23.5726C124.346 23.5759 126.381 21.3117 101.474 48.0216C91.177 59.0637 82.7521 68.2101 82.7517 68.3464C82.7513 68.4831 86.2256 72.5833 90.4723 77.458C108.654 98.3291 115.126 105.75 120.507 111.896L126.217 118.419H114.229H102.242L86.0034 100.116L69.7656 81.8122L66.1213 85.6925L62.4769 89.5732V116.487V143.4L82.4405 143.132C102.706 142.861 108.704 142.521 113.679 141.367C127.607 138.133 137.277 128.593 141.769 113.657C142.785 110.279 142.893 109.287 142.917 103.095C142.948 95.2216 142.533 93.2195 139.613 87.1499C135.995 79.6295 129.302 73.7633 120.627 70.5083C118.915 69.8664 117.519 69.2476 117.522 69.1337C117.526 69.0198 118.943 68.088 120.67 67.0629C124.843 64.5866 128.851 60.6011 131.503 56.2934C142.3 38.7493 134.587 15.93 115.119 7.81736C107.246 4.53635 100.827 4.10976 59.3406 4.10976H26.894V73.6896Z" fill="#2A2E54"/>
<path d="M3.14442 185.391H11.4423C13.0848 185.391 14.3073 185.461 15.1097 185.603C15.9216 185.735 16.6438 186.018 17.2763 186.453C17.9182 186.887 18.4515 187.467 18.8764 188.194C19.3012 188.912 19.5136 189.719 19.5136 190.616C19.5136 191.588 19.2492 192.48 18.7206 193.292C18.2014 194.104 17.4934 194.713 16.5966 195.119C17.8615 195.487 18.8339 196.115 19.5136 197.002C20.1932 197.889 20.5331 198.932 20.5331 200.131C20.5331 201.075 20.3112 201.996 19.8676 202.893C19.4333 203.78 18.8339 204.493 18.0692 205.031C17.314 205.559 16.3794 205.885 15.2655 206.008C14.5669 206.083 12.8819 206.131 10.2103 206.149H3.14442V185.391ZM7.33582 188.846V193.646H10.0829C11.716 193.646 12.7308 193.622 13.1273 193.575C13.8448 193.49 14.4065 193.245 14.8124 192.839C15.2278 192.424 15.4354 191.881 15.4354 191.21C15.4354 190.569 15.2561 190.049 14.8973 189.653C14.5481 189.247 14.0241 189.001 13.3256 188.917C12.9102 188.869 11.716 188.846 9.74305 188.846H7.33582ZM7.33582 197.101V202.652H11.2157C12.7261 202.652 13.6843 202.609 14.0902 202.524C14.7133 202.411 15.2183 202.137 15.6054 201.703C16.0018 201.259 16.2001 200.669 16.2001 199.933C16.2001 199.31 16.049 198.781 15.747 198.347C15.4449 197.913 15.0059 197.597 14.4301 197.398C13.8637 197.2 12.627 197.101 10.7201 197.101H7.33582ZM22.9477 195.897C22.9477 193.783 23.2639 192.008 23.8964 190.573C24.3684 189.516 25.0103 188.567 25.8222 187.727C26.6435 186.887 27.5403 186.264 28.5126 185.858C29.8059 185.31 31.2974 185.037 32.9872 185.037C36.0458 185.037 38.4908 185.985 40.3222 187.883C42.163 189.78 43.0834 192.419 43.0834 195.798C43.0834 199.15 42.1724 201.774 40.3505 203.671C38.5286 205.559 36.093 206.503 33.0439 206.503C29.957 206.503 27.5025 205.564 25.6806 203.686C23.8586 201.798 22.9477 199.201 22.9477 195.897ZM27.2665 195.756C27.2665 198.106 27.8093 199.891 28.8949 201.108C29.9806 202.317 31.3588 202.921 33.0297 202.921C34.7006 202.921 36.0694 202.321 37.1362 201.123C38.2123 199.914 38.7504 198.106 38.7504 195.699C38.7504 193.32 38.2265 191.546 37.1786 190.375C36.1402 189.204 34.7572 188.619 33.0297 188.619C31.3022 188.619 29.9098 189.214 28.8525 190.403C27.7952 191.583 27.2665 193.368 27.2665 195.756ZM45.229 195.897C45.229 193.783 45.5452 192.008 46.1777 190.573C46.6497 189.516 47.2916 188.567 48.1035 187.727C48.9248 186.887 49.8216 186.264 50.7939 185.858C52.0872 185.31 53.5787 185.037 55.2685 185.037C58.3271 185.037 60.7721 185.985 62.6035 187.883C64.4443 189.78 65.3647 192.419 65.3647 195.798C65.3647 199.15 64.4537 201.774 62.6318 203.671C60.8099 205.559 58.3743 206.503 55.3252 206.503C52.2382 206.503 49.7838 205.564 47.9619 203.686C46.1399 201.798 45.229 199.201 45.229 195.897ZM49.5478 195.756C49.5478 198.106 50.0906 199.891 51.1762 201.108C52.2618 202.317 53.6401 202.921 55.311 202.921C56.9819 202.921 58.3507 202.321 59.4174 201.123C60.4936 199.914 61.0317 198.106 61.0317 195.699C61.0317 193.32 60.5078 191.546 59.4599 190.375C58.4215 189.204 57.0385 188.619 55.311 188.619C53.5835 188.619 52.191 189.214 51.1338 190.403C50.0765 191.583 49.5478 193.368 49.5478 195.756ZM68.4165 206.149V185.391H72.6079V194.609L81.0757 185.391H86.7114L78.895 193.476L87.1362 206.149H81.7129L76.0063 196.407L72.6079 199.876V206.149H68.4165ZM88.1773 195.897C88.1773 193.783 88.4935 192.008 89.126 190.573C89.598 189.516 90.2399 188.567 91.0518 187.727C91.8731 186.887 92.7699 186.264 93.7422 185.858C95.0355 185.31 96.5271 185.037 98.2168 185.037C101.275 185.037 103.72 185.985 105.552 187.883C107.393 189.78 108.313 192.419 108.313 195.798C108.313 199.15 107.402 201.774 105.58 203.671C103.758 205.559 101.323 206.503 98.2735 206.503C95.1866 206.503 92.7321 205.564 90.9102 203.686C89.0883 201.798 88.1773 199.201 88.1773 195.897ZM92.4961 195.756C92.4961 198.106 93.0389 199.891 94.1245 201.108C95.2102 202.317 96.5884 202.921 98.2593 202.921C99.9302 202.921 101.299 202.321 102.366 201.123C103.442 199.914 103.98 198.106 103.98 195.699C103.98 193.32 103.456 191.546 102.408 190.375C101.37 189.204 99.9869 188.619 98.2593 188.619C96.5318 188.619 95.1394 189.214 94.0821 190.403C93.0248 191.583 92.4961 193.368 92.4961 195.756ZM110.246 199.395L114.324 198.999C114.57 200.367 115.065 201.373 115.811 202.015C116.566 202.657 117.581 202.978 118.856 202.978C120.205 202.978 121.22 202.694 121.9 202.128C122.589 201.552 122.934 200.882 122.934 200.117C122.934 199.626 122.787 199.211 122.495 198.871C122.212 198.522 121.711 198.22 120.994 197.965C120.503 197.795 119.384 197.493 117.638 197.059C115.391 196.502 113.815 195.817 112.908 195.005C111.634 193.863 110.997 192.471 110.997 190.828C110.997 189.771 111.294 188.784 111.889 187.869C112.493 186.944 113.357 186.24 114.48 185.759C115.613 185.277 116.977 185.037 118.572 185.037C121.178 185.037 123.137 185.608 124.449 186.75C125.77 187.892 126.464 189.417 126.53 191.324L122.339 191.508C122.16 190.441 121.773 189.676 121.178 189.214C120.593 188.742 119.71 188.506 118.53 188.506C117.312 188.506 116.359 188.756 115.67 189.256C115.226 189.577 115.004 190.007 115.004 190.545C115.004 191.036 115.212 191.456 115.627 191.805C116.156 192.249 117.44 192.711 119.479 193.193C121.518 193.674 123.023 194.175 123.996 194.694C124.977 195.204 125.742 195.907 126.29 196.804C126.847 197.691 127.125 198.791 127.125 200.103C127.125 201.292 126.795 202.406 126.134 203.445C125.473 204.483 124.538 205.257 123.33 205.767C122.122 206.267 120.616 206.518 118.813 206.518C116.189 206.518 114.173 205.913 112.767 204.705C111.36 203.487 110.52 201.717 110.246 199.395ZM135.034 206.149V188.902H128.874V185.391H145.371V188.902H139.225V206.149H135.034Z" fill="#2A2E54"/>
</svg>
