<svg width="25" height="25" viewBox="0 0 25 25" fill="none" xmlns="http://www.w3.org/2000/svg">
<path d="M16.4999 21.5C16.4999 21.6989 16.4209 21.8897 16.2803 22.0303C16.1396 22.171 15.9488 22.25 15.7499 22.25H9.74993C9.55102 22.25 9.36025 22.171 9.2196 22.0303C9.07895 21.8897 8.99993 21.6989 8.99993 21.5C8.99993 21.3011 9.07895 21.1103 9.2196 20.9697C9.36025 20.829 9.55102 20.75 9.74993 20.75H15.7499C15.9488 20.75 16.1396 20.829 16.2803 20.9697C16.4209 21.1103 16.4999 21.3011 16.4999 21.5ZM21.5484 18.5C21.4182 18.7292 21.2293 18.9196 21.0011 19.0514C20.7728 19.1833 20.5135 19.2518 20.2499 19.25H5.24993C4.98624 19.2496 4.72731 19.1798 4.49923 19.0475C4.27115 18.9151 4.08198 18.725 3.95079 18.4963C3.8196 18.2676 3.75102 18.0083 3.75196 17.7446C3.75291 17.4809 3.82335 17.2222 3.95618 16.9944C4.47649 16.0981 5.24993 13.5631 5.24993 10.25C5.24993 8.26088 6.04011 6.35322 7.44663 4.9467C8.85315 3.54018 10.7608 2.75 12.7499 2.75C14.7391 2.75 16.6467 3.54018 18.0532 4.9467C19.4598 6.35322 20.2499 8.26088 20.2499 10.25C20.2499 13.5622 21.0243 16.0981 21.5446 16.9944C21.6788 17.2225 21.7497 17.4822 21.7502 17.7468C21.7507 18.0114 21.6807 18.2714 21.5474 18.5H21.5484ZM20.2499 17.75C19.5252 16.5059 18.7499 13.6297 18.7499 10.25C18.7499 8.6587 18.1178 7.13258 16.9926 6.00736C15.8674 4.88214 14.3412 4.25 12.7499 4.25C11.1586 4.25 9.63251 4.88214 8.50729 6.00736C7.38207 7.13258 6.74993 8.6587 6.74993 10.25C6.74993 13.6306 5.97368 16.5069 5.24993 17.75H20.2499Z" fill="#757575"/>
</svg>
