<svg width="25" height="25" viewBox="0 0 25 25" fill="none" xmlns="http://www.w3.org/2000/svg">
<path d="M20.3334 3.5H18.0834V2.75C18.0834 2.55109 18.0044 2.36032 17.8637 2.21967C17.7231 2.07902 17.5323 2 17.3334 2C17.1345 2 16.9437 2.07902 16.803 2.21967C16.6624 2.36032 16.5834 2.55109 16.5834 2.75V3.5H9.08337V2.75C9.08337 2.55109 9.00436 2.36032 8.8637 2.21967C8.72305 2.07902 8.53229 2 8.33337 2C8.13446 2 7.9437 2.07902 7.80304 2.21967C7.66239 2.36032 7.58337 2.55109 7.58337 2.75V3.5H5.33337C4.93555 3.5 4.55402 3.65804 4.27271 3.93934C3.99141 4.22064 3.83337 4.60218 3.83337 5V20C3.83337 20.3978 3.99141 20.7794 4.27271 21.0607C4.55402 21.342 4.93555 21.5 5.33337 21.5H20.3334C20.7312 21.5 21.1127 21.342 21.394 21.0607C21.6753 20.7794 21.8334 20.3978 21.8334 20V5C21.8334 4.60218 21.6753 4.22064 21.394 3.93934C21.1127 3.65804 20.7312 3.5 20.3334 3.5ZM20.3334 8H5.33337V5H7.58337V5.75C7.58337 5.94891 7.66239 6.13968 7.80304 6.28033C7.9437 6.42098 8.13446 6.5 8.33337 6.5C8.53229 6.5 8.72305 6.42098 8.8637 6.28033C9.00436 6.13968 9.08337 5.94891 9.08337 5.75V5H16.5834V5.75C16.5834 5.94891 16.6624 6.13968 16.803 6.28033C16.9437 6.42098 17.1345 6.5 17.3334 6.5C17.5323 6.5 17.7231 6.42098 17.8637 6.28033C18.0044 6.13968 18.0834 5.94891 18.0834 5.75V5H20.3334V8Z" fill="#2A2E54"/>
</svg>
