<svg width="25" height="25" viewBox="0 0 25 25" fill="none" xmlns="http://www.w3.org/2000/svg">
<path d="M19.75 3.5H17.5V2.75C17.5 2.55109 17.421 2.36032 17.2803 2.21967C17.1397 2.07902 16.9489 2 16.75 2C16.5511 2 16.3603 2.07902 16.2197 2.21967C16.079 2.36032 16 2.55109 16 2.75V3.5H8.5V2.75C8.5 2.55109 8.42098 2.36032 8.28033 2.21967C8.13968 2.07902 7.94891 2 7.75 2C7.55109 2 7.36032 2.07902 7.21967 2.21967C7.07902 2.36032 7 2.55109 7 2.75V3.5H4.75C4.35218 3.5 3.97064 3.65804 3.68934 3.93934C3.40804 4.22064 3.25 4.60218 3.25 5V20C3.25 20.3978 3.40804 20.7794 3.68934 21.0607C3.97064 21.342 4.35218 21.5 4.75 21.5H19.75C20.1478 21.5 20.5294 21.342 20.8107 21.0607C21.092 20.7794 21.25 20.3978 21.25 20V5C21.25 4.60218 21.092 4.22064 20.8107 3.93934C20.5294 3.65804 20.1478 3.5 19.75 3.5ZM7 5V5.75C7 5.94891 7.07902 6.13968 7.21967 6.28033C7.36032 6.42098 7.55109 6.5 7.75 6.5C7.94891 6.5 8.13968 6.42098 8.28033 6.28033C8.42098 6.13968 8.5 5.94891 8.5 5.75V5H16V5.75C16 5.94891 16.079 6.13968 16.2197 6.28033C16.3603 6.42098 16.5511 6.5 16.75 6.5C16.9489 6.5 17.1397 6.42098 17.2803 6.28033C17.421 6.13968 17.5 5.94891 17.5 5.75V5H19.75V8H4.75V5H7ZM19.75 20H4.75V9.5H19.75V20Z" fill="#757575"/>
</svg>
