<svg width="25" height="25" viewBox="0 0 25 25" fill="none" xmlns="http://www.w3.org/2000/svg">
<path d="M21.5 11.3329V20.0001C21.5 20.3979 21.342 20.7795 21.0607 21.0608C20.7794 21.3421 20.3978 21.5001 20 21.5001H16.25C15.8522 21.5001 15.4706 21.3421 15.1893 21.0608C14.908 20.7795 14.75 20.3979 14.75 20.0001V16.2501C14.75 16.0512 14.671 15.8604 14.5303 15.7198C14.3897 15.5791 14.1989 15.5001 14 15.5001H11C10.8011 15.5001 10.6103 15.5791 10.4697 15.7198C10.329 15.8604 10.25 16.0512 10.25 16.2501V20.0001C10.25 20.3979 10.092 20.7795 9.81066 21.0608C9.52936 21.3421 9.14782 21.5001 8.75 21.5001H5C4.60218 21.5001 4.22064 21.3421 3.93934 21.0608C3.65804 20.7795 3.5 20.3979 3.5 20.0001V11.3329C3.49997 11.1253 3.54303 10.92 3.62646 10.7299C3.70989 10.5398 3.83187 10.3691 3.98469 10.2286L11.4847 3.1523L11.495 3.14199C11.7711 2.89086 12.131 2.75171 12.5042 2.75171C12.8775 2.75171 13.2373 2.89086 13.5134 3.14199C13.5166 3.14566 13.5201 3.1491 13.5238 3.1523L21.0238 10.2286C21.175 10.3698 21.2954 10.5409 21.3774 10.7309C21.4594 10.921 21.5011 11.1259 21.5 11.3329Z" fill="#2A2E54"/>
</svg>
