<svg width="25" height="25" viewBox="0 0 25 25" fill="none" xmlns="http://www.w3.org/2000/svg">
<path d="M21.0153 10.2286L13.5153 3.1523C13.5116 3.1491 13.5082 3.14566 13.505 3.14199C13.2289 2.89086 12.869 2.75171 12.4958 2.75171C12.1225 2.75171 11.7627 2.89086 11.4866 3.14199L11.4763 3.1523L3.98469 10.2286C3.83187 10.3691 3.70989 10.5398 3.62646 10.7299C3.54303 10.92 3.49997 11.1253 3.5 11.3329V20.0001C3.5 20.3979 3.65804 20.7795 3.93934 21.0608C4.22064 21.3421 4.60218 21.5001 5 21.5001H9.5C9.89782 21.5001 10.2794 21.3421 10.5607 21.0608C10.842 20.7795 11 20.3979 11 20.0001V15.5001H14V20.0001C14 20.3979 14.158 20.7795 14.4393 21.0608C14.7206 21.3421 15.1022 21.5001 15.5 21.5001H20C20.3978 21.5001 20.7794 21.3421 21.0607 21.0608C21.342 20.7795 21.5 20.3979 21.5 20.0001V11.3329C21.5 11.1253 21.457 10.92 21.3735 10.7299C21.2901 10.5398 21.1681 10.3691 21.0153 10.2286ZM20 20.0001H15.5V15.5001C15.5 15.1023 15.342 14.7208 15.0607 14.4395C14.7794 14.1582 14.3978 14.0001 14 14.0001H11C10.6022 14.0001 10.2206 14.1582 9.93934 14.4395C9.65804 14.7208 9.5 15.1023 9.5 15.5001V20.0001H5V11.3329L5.01031 11.3236L12.5 4.25011L19.9906 11.3217L20.0009 11.3311L20 20.0001Z" fill="#757575"/>
</svg>
