<svg width="24" height="25" viewBox="0 0 24 25" fill="none" xmlns="http://www.w3.org/2000/svg">
<path d="M21.2991 10.295C21.6379 10.2261 21.9425 10.0422 22.1613 9.77449C22.3802 9.50679 22.4998 9.1717 22.5 8.82594V6.5C22.5 6.10218 22.342 5.72064 22.0607 5.43934C21.7794 5.15804 21.3978 5 21 5H3C2.60218 5 2.22065 5.15804 1.93934 5.43934C1.65804 5.72064 1.5 6.10218 1.5 6.5V8.82594C1.50019 9.1717 1.61983 9.50679 1.83867 9.77449C2.05751 10.0422 2.36212 10.2261 2.70094 10.295C3.20757 10.4001 3.66251 10.6765 3.98912 11.0778C4.31573 11.4791 4.49406 11.9807 4.49406 12.4981C4.49406 13.0155 4.31573 13.5171 3.98912 13.9184C3.66251 14.3197 3.20757 14.5962 2.70094 14.7013C2.36148 14.7703 2.0564 14.9547 1.83748 15.2232C1.61857 15.4917 1.49933 15.8277 1.5 16.1741V18.5C1.5 18.8978 1.65804 19.2794 1.93934 19.5607C2.22065 19.842 2.60218 20 3 20H21C21.3978 20 21.7794 19.842 22.0607 19.5607C22.342 19.2794 22.5 18.8978 22.5 18.5V16.1741C22.4998 15.8283 22.3802 15.4932 22.1613 15.2255C21.9425 14.9578 21.6379 14.7739 21.2991 14.705C20.7924 14.5999 20.3375 14.3235 20.0109 13.9222C19.6843 13.5209 19.5059 13.0193 19.5059 12.5019C19.5059 11.9845 19.6843 11.4829 20.0109 11.0816C20.3375 10.6803 20.7924 10.4038 21.2991 10.2987V10.295ZM3 16.175C3.84722 16.0024 4.60876 15.5424 5.15573 14.8728C5.70269 14.2031 6.00146 13.3651 6.00146 12.5005C6.00146 11.6359 5.70269 10.7978 5.15573 10.1282C4.60876 9.45857 3.84722 8.99852 3 8.82594V6.5H8.25V18.5H3V16.175ZM21 16.175V18.5H9.75V6.5H21V8.825C20.1528 8.99759 19.3912 9.45763 18.8443 10.1272C18.2973 10.7969 17.9985 11.6349 17.9985 12.4995C17.9985 13.3641 18.2973 14.2022 18.8443 14.8718C19.3912 15.5414 20.1528 16.0015 21 16.1741V16.175Z" fill="#757575"/>
</svg>
