<svg width="25" height="25" viewBox="0 0 25 25" fill="none" xmlns="http://www.w3.org/2000/svg">
<path d="M21.4657 10.295C21.8045 10.2261 22.1091 10.0422 22.328 9.77449C22.5468 9.50679 22.6664 9.1717 22.6666 8.82594V6.5C22.6666 6.10218 22.5086 5.72064 22.2273 5.43934C21.946 5.15804 21.5645 5 21.1666 5H3.16663C2.7688 5 2.38727 5.15804 2.10597 5.43934C1.82466 5.72064 1.66663 6.10218 1.66663 6.5V8.82594C1.66682 9.1717 1.78646 9.50679 2.0053 9.77449C2.22414 10.0422 2.52874 10.2261 2.86757 10.295C3.3742 10.4001 3.82914 10.6765 4.15575 11.0778C4.48236 11.4791 4.66069 11.9807 4.66069 12.4981C4.66069 13.0155 4.48236 13.5171 4.15575 13.9184C3.82914 14.3197 3.3742 14.5962 2.86757 14.7013C2.52811 14.7703 2.22302 14.9547 2.00411 15.2232C1.7852 15.4917 1.66595 15.8277 1.66663 16.1741V18.5C1.66663 18.8978 1.82466 19.2794 2.10597 19.5607C2.38727 19.842 2.7688 20 3.16663 20H21.1666C21.5645 20 21.946 19.842 22.2273 19.5607C22.5086 19.2794 22.6666 18.8978 22.6666 18.5V16.1741C22.6664 15.8283 22.5468 15.4932 22.328 15.2255C22.1091 14.9578 21.8045 14.7739 21.4657 14.705C20.9591 14.5999 20.5041 14.3235 20.1775 13.9222C19.8509 13.5209 19.6726 13.0193 19.6726 12.5019C19.6726 11.9845 19.8509 11.4829 20.1775 11.0816C20.5041 10.6803 20.9591 10.4038 21.4657 10.2987V10.295ZM3.16663 16.175C4.01384 16.0024 4.77539 15.5424 5.32235 14.8728C5.86931 14.2031 6.16808 13.3651 6.16808 12.5005C6.16808 11.6359 5.86931 10.7978 5.32235 10.1282C4.77539 9.45857 4.01384 8.99852 3.16663 8.82594V6.5H8.41663V18.5H3.16663V16.175Z" fill="#2A2E54"/>
</svg>
