<svg width="25" height="25" viewBox="0 0 25 25" fill="none" xmlns="http://www.w3.org/2000/svg">
<path d="M22.1497 21.1251C22.0838 21.2391 21.9891 21.3338 21.8751 21.3997C21.761 21.4655 21.6316 21.5001 21.5 21.5001H3.49996C3.36838 21.5 3.23914 21.4652 3.12523 21.3993C3.01133 21.3335 2.91676 21.2388 2.85102 21.1248C2.78529 21.0108 2.7507 20.8815 2.75073 20.7499C2.75077 20.6183 2.78542 20.4891 2.85121 20.3751C4.27903 17.9067 6.47934 16.1367 9.04715 15.2976C7.777 14.5415 6.79016 13.3893 6.2382 12.018C5.68624 10.6468 5.59967 9.13224 5.99178 7.70701C6.3839 6.28178 7.23301 5.02467 8.40874 4.12873C9.58446 3.23279 11.0218 2.74756 12.5 2.74756C13.9781 2.74756 15.4155 3.23279 16.5912 4.12873C17.7669 5.02467 18.616 6.28178 19.0081 7.70701C19.4003 9.13224 19.3137 10.6468 18.7617 12.018C18.2098 13.3893 17.2229 14.5415 15.9528 15.2976C18.5206 16.1367 20.7209 17.9067 22.1487 20.3751C22.2147 20.489 22.2495 20.6183 22.2497 20.75C22.2498 20.8816 22.2153 21.011 22.1497 21.1251Z" fill="#2A2E54"/>
</svg>
