<svg width="25" height="25" viewBox="0 0 25 25" fill="none" xmlns="http://www.w3.org/2000/svg">
<path d="M22.1489 20.3751C20.7211 17.9067 18.5208 16.1367 15.9529 15.2976C17.2231 14.5415 18.2099 13.3893 18.7619 12.018C19.3139 10.6468 19.4004 9.13224 19.0083 7.70701C18.6162 6.28178 17.7671 5.02467 16.5914 4.12873C15.4156 3.23279 13.9783 2.74756 12.5001 2.74756C11.0219 2.74756 9.58463 3.23279 8.40891 4.12873C7.23318 5.02467 6.38406 6.28178 5.99195 7.70701C5.59984 9.13224 5.68641 10.6468 6.23837 12.018C6.79033 13.3893 7.77716 14.5415 9.04732 15.2976C6.47951 16.1357 4.27919 17.9057 2.85138 20.3751C2.79902 20.4605 2.76429 20.5555 2.74924 20.6545C2.73419 20.7535 2.73912 20.8545 2.76375 20.9516C2.78837 21.0487 2.83219 21.1399 2.89262 21.2197C2.95305 21.2996 3.02887 21.3666 3.11559 21.4167C3.20232 21.4667 3.2982 21.499 3.39758 21.5114C3.49695 21.5238 3.59782 21.5163 3.69421 21.4891C3.79061 21.4619 3.88059 21.4157 3.95884 21.3532C4.03709 21.2907 4.10203 21.2131 4.14982 21.1251C5.91607 18.0726 9.03794 16.2501 12.5001 16.2501C15.9623 16.2501 19.0842 18.0726 20.8504 21.1251C20.8982 21.2131 20.9632 21.2907 21.0414 21.3532C21.1197 21.4157 21.2097 21.4619 21.306 21.4891C21.4024 21.5163 21.5033 21.5238 21.6027 21.5114C21.7021 21.499 21.7979 21.4667 21.8847 21.4167C21.9714 21.3666 22.0472 21.2996 22.1076 21.2197C22.1681 21.1399 22.2119 21.0487 22.2365 20.9516C22.2611 20.8545 22.2661 20.7535 22.251 20.6545C22.236 20.5555 22.2012 20.4605 22.1489 20.3751ZM7.25013 9.50011C7.25013 8.46176 7.55804 7.44672 8.13492 6.58337C8.71179 5.72001 9.53173 5.0471 10.491 4.64974C11.4504 4.25238 12.506 4.14841 13.5244 4.35099C14.5428 4.55356 15.4782 5.05357 16.2124 5.7878C16.9467 6.52202 17.4467 7.45748 17.6493 8.47589C17.8518 9.49429 17.7479 10.5499 17.3505 11.5092C16.9531 12.4685 16.2802 13.2884 15.4169 13.8653C14.5535 14.4422 13.5385 14.7501 12.5001 14.7501C11.1082 14.7486 9.77371 14.195 8.78947 13.2108C7.80522 12.2265 7.25162 10.892 7.25013 9.50011Z" fill="#757575"/>
</svg>
