<svg width="8" height="15" viewBox="0 0 8 15" fill="none" xmlns="http://www.w3.org/2000/svg">
<path d="M6.55844 14.4425L0.308441 8.19254C0.250331 8.13449 0.204231 8.06556 0.172778 7.98968C0.141326 7.91381 0.125138 7.83248 0.125138 7.75035C0.125138 7.66821 0.141326 7.58688 0.172778 7.51101C0.204231 7.43514 0.250331 7.36621 0.308441 7.30816L6.55844 1.05816C6.67572 0.940885 6.83478 0.875 7.00063 0.875C7.16648 0.875 7.32554 0.940885 7.44282 1.05816C7.56009 1.17544 7.62598 1.3345 7.62598 1.50035C7.62598 1.6662 7.56009 1.82526 7.44282 1.94253L1.63422 7.75035L7.44282 13.5582C7.50089 13.6162 7.54695 13.6852 7.57837 13.761C7.6098 13.8369 7.62598 13.9182 7.62598 14.0003C7.62598 14.0825 7.6098 14.1638 7.57837 14.2397C7.54695 14.3155 7.50089 14.3845 7.44282 14.4425C7.38475 14.5006 7.31581 14.5467 7.23994 14.5781C7.16407 14.6095 7.08275 14.6257 7.00063 14.6257C6.91851 14.6257 6.83719 14.6095 6.76132 14.5781C6.68545 14.5467 6.61651 14.5006 6.55844 14.4425Z" fill="#343330"/>
</svg>
